<svg width="20" height="20" viewBox="0 0 20 20" fill="none" xmlns="http://www.w3.org/2000/svg">
<g id="4177620_card_id_identification_identity_icon 1">
<path id="Vector" d="M17.5 3.75H2.5C2.16848 3.75 1.85054 3.8817 1.61612 4.11612C1.3817 4.35054 1.25 4.66848 1.25 5V15C1.25 15.3315 1.3817 15.6495 1.61612 15.8839C1.85054 16.1183 2.16848 16.25 2.5 16.25H17.5C17.8315 16.25 18.1495 16.1183 18.3839 15.8839C18.6183 15.6495 18.75 15.3315 18.75 15V5C18.75 4.66848 18.6183 4.35054 18.3839 4.11612C18.1495 3.8817 17.8315 3.75 17.5 3.75ZM17.5 15H2.5V5H17.5V15Z" fill="#162D59"/>
<path id="Vector_2" d="M11.25 8.75H15.625C15.7908 8.75 15.9497 8.68415 16.0669 8.56694C16.1842 8.44973 16.25 8.29076 16.25 8.125C16.25 7.95924 16.1842 7.80027 16.0669 7.68306C15.9497 7.56585 15.7908 7.5 15.625 7.5H11.25C11.0842 7.5 10.9253 7.56585 10.8081 7.68306C10.6908 7.80027 10.625 7.95924 10.625 8.125C10.625 8.29076 10.6908 8.44973 10.8081 8.56694C10.9253 8.68415 11.0842 8.75 11.25 8.75Z" fill="#162D59"/>
<path id="Vector_3" d="M11.25 11.25H13.75C13.9158 11.25 14.0747 11.1842 14.1919 11.0669C14.3092 10.9497 14.375 10.7908 14.375 10.625C14.375 10.4592 14.3092 10.3003 14.1919 10.1831C14.0747 10.0658 13.9158 10 13.75 10H11.25C11.0842 10 10.9253 10.0658 10.8081 10.1831C10.6908 10.3003 10.625 10.4592 10.625 10.625C10.625 10.7908 10.6908 10.9497 10.8081 11.0669C10.9253 11.1842 11.0842 11.25 11.25 11.25Z" fill="#162D59"/>
<path id="Vector_4" d="M4.375 13.125C4.54076 13.125 4.69973 13.0592 4.81694 12.9419C4.93415 12.8247 5 12.6658 5 12.5C5 12.325 5.55 11.9437 5.8 11.875H5.86875C6.12685 11.8196 6.36472 11.6942 6.55625 11.5125C6.76182 11.5605 6.97568 11.5605 7.18125 11.5125C7.37278 11.6942 7.61065 11.8196 7.86875 11.875H7.9125C8.18125 11.975 8.7125 12.3562 8.7375 12.5312C8.7375 12.697 8.80335 12.856 8.92056 12.9732C9.03777 13.0904 9.19674 13.1562 9.3625 13.1562C9.52826 13.1562 9.68723 13.0904 9.80444 12.9732C9.92165 12.856 9.9875 12.697 9.9875 12.5312C9.9875 11.425 8.50625 10.7437 8.2875 10.6562C8.64226 10.0869 8.80442 9.41859 8.75 8.75C8.72579 8.26054 8.52047 7.79757 8.17395 7.45105C7.82743 7.10453 7.36446 6.89921 6.875 6.875C6.38554 6.89921 5.92257 7.10453 5.57605 7.45105C5.22953 7.79757 5.02421 8.26054 5 8.75C4.95234 9.40816 5.11424 10.0645 5.4625 10.625C5.23125 10.7125 3.75 11.3938 3.75 12.5C3.75 12.6658 3.81585 12.8247 3.93306 12.9419C4.05027 13.0592 4.20924 13.125 4.375 13.125ZM6.875 8.125C7.03311 8.14671 7.17977 8.21954 7.29262 8.33238C7.40546 8.44523 7.47829 8.59189 7.5 8.75C7.54174 9.00663 7.52339 9.26945 7.4464 9.5178C7.3694 9.76614 7.23585 9.99324 7.05625 10.1813C7.03245 10.2051 7.0042 10.224 6.9731 10.2368C6.942 10.2497 6.90866 10.2564 6.875 10.2564C6.84134 10.2564 6.808 10.2497 6.7769 10.2368C6.7458 10.224 6.71755 10.2051 6.69375 10.1813C6.51374 9.99352 6.37992 9.76644 6.3029 9.51801C6.22588 9.26959 6.20777 9.00664 6.25 8.75C6.27171 8.59189 6.34454 8.44523 6.45738 8.33238C6.57023 8.21954 6.71689 8.14671 6.875 8.125Z" fill="#162D59"/>
</g>
</svg>
