<svg width="23" height="20" viewBox="0 0 23 20" fill="none" xmlns="http://www.w3.org/2000/svg">
<g id="map-pin">
<path id="Vector" d="M19.535 8.33337C19.535 14.1667 11.5794 19.1667 11.5794 19.1667C11.5794 19.1667 3.62378 14.1667 3.62378 8.33337C3.62378 6.34425 4.46196 4.4366 5.95392 3.03007C7.44589 1.62355 9.46943 0.833374 11.5794 0.833374C13.6893 0.833374 15.7129 1.62355 17.2049 3.03007C18.6968 4.4366 19.535 6.34425 19.535 8.33337Z" stroke="#162D59" stroke-width="1.5" stroke-linecap="round" stroke-linejoin="round"/>
<path id="Vector_2" d="M11.5794 10.8334C13.0439 10.8334 14.2312 9.71409 14.2312 8.33337C14.2312 6.95266 13.0439 5.83337 11.5794 5.83337C10.1148 5.83337 8.92749 6.95266 8.92749 8.33337C8.92749 9.71409 10.1148 10.8334 11.5794 10.8334Z" stroke="#162D59" stroke-width="1.5" stroke-linecap="round" stroke-linejoin="round"/>
</g>
</svg>
