<svg width="20" height="18" viewBox="0 0 20 18" fill="none" xmlns="http://www.w3.org/2000/svg">
<g id="Senha">
<path id="Vector" d="M15.4444 8.09998H4.55556C3.69645 8.09998 3 8.8326 3 9.73634V15.4636C3 16.3674 3.69645 17.1 4.55556 17.1H15.4444C16.3036 17.1 17 16.3674 17 15.4636V9.73634C17 8.8326 16.3036 8.09998 15.4444 8.09998Z" stroke="#162D59" stroke-width="1.5" stroke-linecap="round" stroke-linejoin="round"/>
<path id="Vector_2" d="M6 8.10002V4.90002C6 3.83916 6.42143 2.82174 7.17157 2.0716C7.92172 1.32145 8.93913 0.900024 10 0.900024C11.0609 0.900024 12.0783 1.32145 12.8284 2.0716C13.5786 2.82174 14 3.83916 14 4.90002V8.10002" stroke="#162D59" stroke-width="1.5" stroke-linecap="round" stroke-linejoin="round"/>
</g>
</svg>
