<svg width="48" height="48" viewBox="0 0 48 48" fill="none" xmlns="http://www.w3.org/2000/svg">
<g id="user-check 1">
<path id="Vector" d="M32 42.0001V38C32 35.8783 31.1571 33.8435 29.6569 32.3432C28.1566 30.8429 26.1217 30 24 30H10C7.87827 30 5.84344 30.8429 4.34315 32.3432C2.84285 33.8435 2 35.8783 2 38V42.0001" stroke="#5A1AB7" stroke-width="4" stroke-linecap="round" stroke-linejoin="round"/>
<path id="Vector_2" d="M17 22C21.4183 22 25 18.4183 25 14C25 9.58173 21.4183 6.00001 17 6.00001C12.5817 6.00001 9 9.58173 9 14C9 18.4183 12.5817 22 17 22Z" stroke="#5A1AB7" stroke-width="4" stroke-linecap="round" stroke-linejoin="round"/>
<path id="Vector_3" d="M34 22L38 26L46 18" stroke="#5A1AB7" stroke-width="4" stroke-linecap="round" stroke-linejoin="round"/>
</g>
</svg>
